<svg xmlns="http://www.w3.org/2000/svg" xmlns:xlink="http://www.w3.org/1999/xlink" contentStyleType="text/css" data-diagram-type="STATE" height="252px" preserveAspectRatio="none" style="width:708px;height:252px;background:#FFFFFF;" version="1.1" viewBox="0 0 708 252" width="708px" zoomAndPan="magnify"><defs/><g><g id="NoData"><rect fill="#F1F1F1" height="50.2656" rx="12.5" ry="12.5" style="stroke:#181818;stroke-width:0.5;" width="103.0098" x="7" y="66.5659"/><line style="stroke:#181818;stroke-width:0.5;" x1="7" x2="110.0098" y1="92.8628" y2="92.8628"/><text fill="#000000" font-family="sans-serif" font-size="14" lengthAdjust="spacing" textLength="52.4658" x="32.272" y="84.561">NoData</text><text fill="#000000" font-family="sans-serif" font-size="12" lengthAdjust="spacing" textLength="83.0098" x="12" y="109.0015">unwritten = 0</text></g><g id="WriteData"><rect fill="#F1F1F1" height="50.2656" rx="12.5" ry="12.5" style="stroke:#181818;stroke-width:0.5;" width="103.0098" x="291" y="66.5659"/><line style="stroke:#181818;stroke-width:0.5;" x1="291" x2="394.0098" y1="92.8628" y2="92.8628"/><text fill="#000000" font-family="sans-serif" font-size="14" lengthAdjust="spacing" textLength="71.0186" x="306.9956" y="84.561">WriteData</text><text fill="#000000" font-family="sans-serif" font-size="12" lengthAdjust="spacing" textLength="83.0098" x="296" y="109.0015">unwritten = 1</text></g><g id="ReadWriteData"><rect fill="#F1F1F1" height="50.2656" rx="12.5" ry="12.5" style="stroke:#181818;stroke-width:0.5;" width="126.8252" x="575" y="66.5659"/><line style="stroke:#181818;stroke-width:0.5;" x1="575" x2="701.8252" y1="92.8628" y2="92.8628"/><text fill="#000000" font-family="sans-serif" font-size="14" lengthAdjust="spacing" textLength="106.8252" x="585" y="84.561">ReadWriteData</text><text fill="#000000" font-family="sans-serif" font-size="12" lengthAdjust="spacing" textLength="83.0098" x="580" y="109.0015">unwritten = 2</text></g><ellipse cx="342.5" cy="236.5659" fill="#222222" rx="10" ry="10" style="stroke:#222222;stroke-width:1;"/><!--reverse link WriteData to *start*--><g id="link_WriteData_*start*"><path d="M342.5,122.8259 C342.5,155.1759 342.5,204.8859 342.5,226.5659 " fill="transparent" id="WriteData-backto-*start*" style="stroke:#181818;stroke-width:1;"/><polygon fill="#181818" points="342.5,116.8259,338.5,125.8259,342.5,121.8259,346.5,125.8259,342.5,116.8259" style="stroke:#181818;stroke-width:1;"/><path d="M347.5,151.5659 L347.5,191.5659 L483.5,191.5659 L483.5,161.5659 L473.5,151.5659 L347.5,151.5659 " fill="#FEFFDD" style="stroke:#181818;stroke-width:0.5;"/><path d="M473.5,151.5659 L473.5,161.5659 L483.5,161.5659 L473.5,151.5659 " fill="#FEFFDD" style="stroke:#181818;stroke-width:0.5;"/><text fill="#000000" font-family="sans-serif" font-size="13" lengthAdjust="spacing" textLength="77.0034" x="353.5" y="168.6328">async_write</text><text fill="#000000" font-family="sans-serif" font-size="13" lengthAdjust="spacing" textLength="115.7686" x="353.5" y="183.7656">async_read_some</text></g><!--link NoData to WriteData--><g id="link_NoData_WriteData"><path d="M110.26,91.5659 C161.46,91.5659 233.38,91.5659 284.62,91.5659 " fill="transparent" id="NoData-to-WriteData" style="stroke:#181818;stroke-width:1;"/><polygon fill="#181818" points="290.62,91.5659,281.62,87.5659,285.62,91.5659,281.62,95.5659,290.62,91.5659" style="stroke:#181818;stroke-width:1;"/><text fill="#000000" font-family="sans-serif" font-size="13" lengthAdjust="spacing" textLength="33.249" x="184.2598" y="19.6328">Read</text><path d="M132.5,28.6987 L132.5,83.6987 L268.5,83.6987 L268.5,38.6987 L258.5,28.6987 L132.5,28.6987 " fill="#FEFFDD" style="stroke:#181818;stroke-width:0.5;"/><path d="M258.5,28.6987 L258.5,38.6987 L268.5,38.6987 L258.5,28.6987 " fill="#FEFFDD" style="stroke:#181818;stroke-width:0.5;"/><text fill="#000000" font-family="sans-serif" font-size="13" lengthAdjust="spacing" textLength="83.5161" x="138.5" y="45.7656">swap buffers</text><text fill="#000000" font-family="sans-serif" font-size="13" lengthAdjust="spacing" textLength="77.0034" x="138.5" y="60.8984">async_write</text><text fill="#000000" font-family="sans-serif" font-size="13" lengthAdjust="spacing" textLength="115.7686" x="138.5" y="76.0313">async_read_some</text></g><!--reverse link NoData to WriteData--><g id="link_NoData_WriteData"><path d="M116.1587,104.5438 C147.4287,110.3638 182.22,114.4759 218.5,111.5659 C242.41,109.6459 268.67,105.6859 290.84,101.7959 " fill="transparent" id="NoData-backto-WriteData" style="stroke:#181818;stroke-width:1;"/><polygon fill="#181818" points="110.26,103.4459,118.3761,109.0252,115.1756,104.3608,119.84,101.1603,110.26,103.4459" style="stroke:#181818;stroke-width:1;"/><text fill="#000000" font-family="sans-serif" font-size="13" lengthAdjust="spacing" textLength="34.9058" x="183.5" y="107.6328">Write</text></g><!--link WriteData to ReadWriteData--><g id="link_WriteData_ReadWriteData"><path d="M394.07,101.7359 C416.39,105.6559 442.89,109.6459 467,111.5659 C502.71,114.4159 536.5281,111.2106 568.7581,105.9606 " fill="transparent" id="WriteData-to-ReadWriteData" style="stroke:#181818;stroke-width:1;"/><polygon fill="#181818" points="574.68,104.9959,565.154,102.4949,569.745,105.7998,566.4402,110.3908,574.68,104.9959" style="stroke:#181818;stroke-width:1;"/><text fill="#000000" font-family="sans-serif" font-size="13" lengthAdjust="spacing" textLength="33.249" x="468" y="107.6328">Read</text></g><!--reverse link WriteData to ReadWriteData--><g id="link_WriteData_ReadWriteData"><path d="M400.06,91.5659 C450.33,91.5659 520.89,91.5659 574.92,91.5659 " fill="transparent" id="WriteData-backto-ReadWriteData" style="stroke:#181818;stroke-width:1;"/><polygon fill="#181818" points="394.06,91.5659,403.06,95.5659,399.06,91.5659,403.06,87.5659,394.06,91.5659" style="stroke:#181818;stroke-width:1;"/><text fill="#000000" font-family="sans-serif" font-size="13" lengthAdjust="spacing" textLength="34.9058" x="467.4314" y="19.6328">Write</text><path d="M416.5,28.6987 L416.5,83.6987 L552.5,83.6987 L552.5,38.6987 L542.5,28.6987 L416.5,28.6987 " fill="#FEFFDD" style="stroke:#181818;stroke-width:0.5;"/><path d="M542.5,28.6987 L542.5,38.6987 L552.5,38.6987 L542.5,28.6987 " fill="#FEFFDD" style="stroke:#181818;stroke-width:0.5;"/><text fill="#000000" font-family="sans-serif" font-size="13" lengthAdjust="spacing" textLength="83.5161" x="422.5" y="45.7656">swap buffers</text><text fill="#000000" font-family="sans-serif" font-size="13" lengthAdjust="spacing" textLength="77.0034" x="422.5" y="60.8984">async_write</text><text fill="#000000" font-family="sans-serif" font-size="13" lengthAdjust="spacing" textLength="115.7686" x="422.5" y="76.0313">async_read_some</text></g><!--SRC=[hP2z3i8m38HtFuLdf4Z0Y0GJCmCB0q9Le2vK5AUA4rMyFKcWFrGm837QlllkP77Q4MxCMZkD2_JSsD8vObpY543ITHTMz44mQmLRqlatqHnWFpcWyhLQzIHW4to6iIhv2eXQxdpAeekwoGPg9kP6G9nZD02yYYfRdYzk20ofiSMOAuskyUYBWgpy4DDZLKL53Ee-b4v3GLjb_8HKvttPmeQo9-yVjHy0]--></g></svg>