<svg xmlns="http://www.w3.org/2000/svg" xmlns:xlink="http://www.w3.org/1999/xlink" contentStyleType="text/css" data-diagram-type="STATE" height="228px" preserveAspectRatio="none" style="width:882px;height:228px;background:#FFFFFF;" version="1.1" viewBox="0 0 882 228" width="882px" zoomAndPan="magnify"><defs/><g><g id="NoData"><rect fill="#F1F1F1" height="64.2344" rx="12.5" ry="12.5" style="stroke:#181818;stroke-width:0.5;" width="89.3867" x="206.5" y="59.5659"/><line style="stroke:#181818;stroke-width:0.5;" x1="206.5" x2="295.8867" y1="85.8628" y2="85.8628"/><text fill="#000000" font-family="sans-serif" font-size="14" lengthAdjust="spacing" textLength="52.4658" x="224.9604" y="77.561">NoData</text><text fill="#000000" font-family="sans-serif" font-size="12" lengthAdjust="spacing" textLength="40.2773" x="211.5" y="102.0015">op = 1</text><text fill="#000000" font-family="sans-serif" font-size="12" lengthAdjust="spacing" textLength="69.3867" x="211.5" y="115.9702">unsend = 0</text></g><g id="WriteData"><rect fill="#F1F1F1" height="64.2344" rx="12.5" ry="12.5" style="stroke:#181818;stroke-width:0.5;" width="91.0186" x="476.5" y="59.5659"/><line style="stroke:#181818;stroke-width:0.5;" x1="476.5" x2="567.5186" y1="85.8628" y2="85.8628"/><text fill="#000000" font-family="sans-serif" font-size="14" lengthAdjust="spacing" textLength="71.0186" x="486.5" y="77.561">WriteData</text><text fill="#000000" font-family="sans-serif" font-size="12" lengthAdjust="spacing" textLength="40.2773" x="481.5" y="102.0015">op = 2</text><text fill="#000000" font-family="sans-serif" font-size="12" lengthAdjust="spacing" textLength="69.3867" x="481.5" y="115.9702">unsend = 1</text></g><g id="ReadWriteData"><rect fill="#F1F1F1" height="64.2344" rx="12.5" ry="12.5" style="stroke:#181818;stroke-width:0.5;" width="126.8252" x="748.5" y="59.5659"/><line style="stroke:#181818;stroke-width:0.5;" x1="748.5" x2="875.3252" y1="85.8628" y2="85.8628"/><text fill="#000000" font-family="sans-serif" font-size="14" lengthAdjust="spacing" textLength="106.8252" x="758.5" y="77.561">ReadWriteData</text><text fill="#000000" font-family="sans-serif" font-size="12" lengthAdjust="spacing" textLength="40.2773" x="753.5" y="102.0015">op = 1</text><text fill="#000000" font-family="sans-serif" font-size="12" lengthAdjust="spacing" textLength="69.3867" x="753.5" y="115.9702">unsend = 2</text></g><ellipse cx="16" cy="91.5659" fill="#222222" rx="10" ry="10" style="stroke:#222222;stroke-width:1;"/><ellipse cx="522" cy="211.5659" fill="transparent" rx="11" ry="11" style="stroke:#222222;stroke-width:1;"/><ellipse cx="522" cy="211.5659" fill="#222222" rx="6" ry="6" style="stroke:#222222;stroke-width:1;"/><!--link *start* to NoData--><g id="link_*start*_NoData"><path d="M26.1,91.5659 C56.76,91.5659 144.12,91.5659 200.45,91.5659 " fill="transparent" id="*start*-to-NoData" style="stroke:#181818;stroke-width:1;"/><polygon fill="#181818" points="206.45,91.5659,197.45,87.5659,201.45,91.5659,197.45,95.5659,206.45,91.5659" style="stroke:#181818;stroke-width:1;"/><path d="M48.25,58.5659 L48.25,83.5659 L184.25,83.5659 L184.25,68.5659 L174.25,58.5659 L48.25,58.5659 " fill="#FEFFDD" style="stroke:#181818;stroke-width:0.5;"/><path d="M174.25,58.5659 L174.25,68.5659 L184.25,68.5659 L174.25,58.5659 " fill="#FEFFDD" style="stroke:#181818;stroke-width:0.5;"/><text fill="#000000" font-family="sans-serif" font-size="13" lengthAdjust="spacing" textLength="115.7686" x="54.25" y="75.6328">async_read_some</text></g><!--link NoData to WriteData--><g id="link_NoData_WriteData"><path d="M295.75,91.5659 C345.66,91.5659 419.98,91.5659 470.28,91.5659 " fill="transparent" id="NoData-to-WriteData" style="stroke:#181818;stroke-width:1;"/><polygon fill="#181818" points="476.28,91.5659,467.28,87.5659,471.28,91.5659,467.28,95.5659,476.28,91.5659" style="stroke:#181818;stroke-width:1;"/><text fill="#000000" font-family="sans-serif" font-size="13" lengthAdjust="spacing" textLength="33.249" x="369.7598" y="19.6328">Read</text><path d="M318,28.6987 L318,83.6987 L454,83.6987 L454,38.6987 L444,28.6987 L318,28.6987 " fill="#FEFFDD" style="stroke:#181818;stroke-width:0.5;"/><path d="M444,28.6987 L444,38.6987 L454,38.6987 L444,28.6987 " fill="#FEFFDD" style="stroke:#181818;stroke-width:0.5;"/><text fill="#000000" font-family="sans-serif" font-size="13" lengthAdjust="spacing" textLength="83.5161" x="324" y="45.7656">swap buffers</text><text fill="#000000" font-family="sans-serif" font-size="13" lengthAdjust="spacing" textLength="77.0034" x="324" y="60.8984">async_write</text><text fill="#000000" font-family="sans-serif" font-size="13" lengthAdjust="spacing" textLength="115.7686" x="324" y="76.0313">async_read_some</text></g><!--reverse link NoData to WriteData--><g id="link_NoData_WriteData"><path d="M301.6642,102.1677 C323.3642,106.2977 343.98,109.5259 368,111.5659 C404.54,114.6659 445.71,108.8259 476.29,102.6759 " fill="transparent" id="NoData-backto-WriteData" style="stroke:#181818;stroke-width:1;"/><polygon fill="#181818" points="295.77,101.0459,303.8634,106.6581,300.6818,101.9808,305.3592,98.7992,295.77,101.0459" style="stroke:#181818;stroke-width:1;"/><text fill="#000000" font-family="sans-serif" font-size="13" lengthAdjust="spacing" textLength="34.9058" x="369" y="107.6328">Write</text></g><!--link NoData to *end*--><g id="link_NoData_*end*"><path d="M295.75,112.0559 C360.69,140.3259 471.619,188.6304 506.409,203.7804 " fill="transparent" id="NoData-to-*end*" style="stroke:#181818;stroke-width:1;"/><polygon fill="#181818" points="511.91,206.1759,505.2555,198.9153,507.3258,204.1796,502.0614,206.25,511.91,206.1759" style="stroke:#181818;stroke-width:1;"/><text fill="#000000" font-family="sans-serif" font-size="13" lengthAdjust="spacing" textLength="32.2017" x="428" y="166.6328">Error</text></g><!--link WriteData to ReadWriteData--><g id="link_WriteData_ReadWriteData"><path d="M567.64,101.1059 C589.56,105.2159 616.28,109.5359 640.5,111.5659 C676.2,114.5559 710.0189,111.3659 742.2489,106.0859 " fill="transparent" id="WriteData-to-ReadWriteData" style="stroke:#181818;stroke-width:1;"/><polygon fill="#181818" points="748.17,105.1159,738.6417,102.6235,743.2358,105.9243,739.9351,110.5183,748.17,105.1159" style="stroke:#181818;stroke-width:1;"/><text fill="#000000" font-family="sans-serif" font-size="13" lengthAdjust="spacing" textLength="33.249" x="641.5" y="107.6328">Read</text></g><!--reverse link WriteData to ReadWriteData--><g id="link_WriteData_ReadWriteData"><path d="M573.63,91.5659 C622.28,91.5659 693.69,91.5659 748.32,91.5659 " fill="transparent" id="WriteData-backto-ReadWriteData" style="stroke:#181818;stroke-width:1;"/><polygon fill="#181818" points="567.63,91.5659,576.63,95.5659,572.63,91.5659,576.63,87.5659,567.63,91.5659" style="stroke:#181818;stroke-width:1;"/><text fill="#000000" font-family="sans-serif" font-size="13" lengthAdjust="spacing" textLength="34.9058" x="640.9314" y="19.6328">Write</text><path d="M590,28.6987 L590,83.6987 L726,83.6987 L726,38.6987 L716,28.6987 L590,28.6987 " fill="#FEFFDD" style="stroke:#181818;stroke-width:0.5;"/><path d="M716,28.6987 L716,38.6987 L726,38.6987 L716,28.6987 " fill="#FEFFDD" style="stroke:#181818;stroke-width:0.5;"/><text fill="#000000" font-family="sans-serif" font-size="13" lengthAdjust="spacing" textLength="83.5161" x="596" y="45.7656">swap buffers</text><text fill="#000000" font-family="sans-serif" font-size="13" lengthAdjust="spacing" textLength="77.0034" x="596" y="60.8984">async_write</text><text fill="#000000" font-family="sans-serif" font-size="13" lengthAdjust="spacing" textLength="115.7686" x="596" y="76.0313">async_read_some</text></g><!--link WriteData to *end*--><g id="link_WriteData_*end*"><path d="M522,123.5659 C522,148.9659 522,177.3859 522,194.3059 " fill="transparent" id="WriteData-to-*end*" style="stroke:#181818;stroke-width:1;"/><polygon fill="#181818" points="522,200.3059,526,191.3059,522,195.3059,518,191.3059,522,200.3059" style="stroke:#181818;stroke-width:1;"/><text fill="#000000" font-family="sans-serif" font-size="13" lengthAdjust="spacing" textLength="32.2017" x="523" y="166.6328">Error</text></g><!--link ReadWriteData to *end*--><g id="link_ReadWriteData_*end*"><path d="M748.36,118.4659 C676.66,147.6359 571.2875,190.5043 537.5975,204.2143 " fill="transparent" id="ReadWriteData-to-*end*" style="stroke:#181818;stroke-width:1;"/><polygon fill="#181818" points="532.04,206.4759,541.8839,206.7885,536.6712,204.5913,538.8685,199.3786,532.04,206.4759" style="stroke:#181818;stroke-width:1;"/><text fill="#000000" font-family="sans-serif" font-size="13" lengthAdjust="spacing" textLength="32.2017" x="659" y="166.6328">Error</text></g><!--SRC=[hP2n3e8m48RtUugRJKY4aKGdNHrS78mXLGubOalQaiQtjqKe1J5nSEr_ttt_LMcc2NTYmpJ354MDAun1ZLyRheZdDbb25nragIbaafd0Ot6FxOdb7sZy9VHu0d1Sd32IvVMcetNN2xYmaE1ObVmEY4mz-IMJTaccn8F0iMu4eBl3yw74IQURb64rdfkY8AdyOkEWdpIvCDnQNEKKjr8A2OCnggWORh03RHGEz2sdtz4s3UPcD6EaLuLBthR_t3knZQgy0000]--></g></svg>